# xmcd
#
# Track frame offsets:
#	150
#	12938
#	21794
#	34690
#	46786
#	57887
#	68494
#	81237
#	96004
#	106339
#	118729
#	126188
#	136025
#	146333
#	160865
#	171157
#	185281
#	197381
#
# Disc length: 2791 seconds
#
# Revision: 1
# Processed by: cddbd v1.5.2PL0 Copyright (c) Steve Scherf et al.
# Submitted via: audiograbber 1.83.01
#
DISCID=df0ae512
DTITLE=Various Artist - Outlaw Country
DYEAR=1900
DGENRE=Country
TTITLE0=Folsom Prison Blues - Johnny Cash
TTITLE1=Fuzzy Was An Outlaw - David Allan Coe
TTITLE2=The Fightin' Side Of Me - Merle Haggard
TTITLE3=Take This Job And Shove It - Johnny Paycheck
TTITLE4=No Show Jones - Merle Haggard and George Jones
TTITLE5=In The Jailhouse Now - Webb Pierce
TTITLE6=Mean Mean Son Of A Gun - Jonny Horton
TTITLE7=There Ain't No Good Chain Gang - Johnny Cash and Waylon Jennings
TTITLE8=Hanging Tree - Leroy Van Dyke
TTITLE9=Wasted Days and Wasted Nights - Freddy Fender
TTITLE10=I Gotta Get Drunk - Willie Nelson
TTITLE11=Mama Tried - Merle Haggard
TTITLE12=Live Fast Love Hard Die Young - Faron Young
TTITLE13=I'm The Only Hell - Johnny Paycheck
TTITLE14=White Lightning - Waylon Jennings
TTITLE15=Ride Me Down Easy - David Allan Coe
TTITLE16=Hey Bartender - Johnny Lee
TTITLE17=Mexican Joe - Jim Reeves
EXTD=
EXTT0=
EXTT1=
EXTT2=
EXTT3=
EXTT4=
EXTT5=
EXTT6=
EXTT7=
EXTT8=
EXTT9=
EXTT10=
EXTT11=
EXTT12=
EXTT13=
EXTT14=
EXTT15=
EXTT16=
EXTT17=
PLAYORDER=
